<?xml version="1.0" encoding="UTF-8" standalone="no"?>
<svg
   viewBox="0 0 32 32"
   width="32"
   height="32"
   version="1.1"
   id="svg1"
   xmlns="http://www.w3.org/2000/svg"
   xmlns:svg="http://www.w3.org/2000/svg">
  <defs
     id="defs1" />
  <path
     d="m 14.812624,5.0000817 h 2.375017 l 0.499994,2.5937387 0.125102,0.5937637 0.562507,0.1874646 c 1.136731,0.3556536 2.167975,0.9570142 3.031257,1.7499973 l 0.43748,0.406223 0.562507,-0.187464 2.531263,-0.8749988 1.18749,2.0312688 -2.000012,1.781254 -0.468737,0.374929 0.156094,0.593726 c 0.128882,0.570331 0.187465,1.15234 0.187465,1.749997 0,0.597657 -0.05858,1.179704 -0.187465,1.749997 l -0.125102,0.593763 0.43748,0.37493 2.000013,1.781253 -1.18749,2.031232 -2.531263,-0.874999 -0.562507,-0.187464 -0.437481,0.406261 c -0.863281,0.792983 -1.894526,1.394532 -3.031256,1.749997 l -0.562507,0.187465 -0.125103,0.593763 -0.499993,2.593739 H 14.812359 L 14.312366,24.406179 14.187263,23.812416 13.624756,23.624951 C 12.488025,23.269297 11.456781,22.667937 10.593499,21.874954 L 10.155981,21.468693 9.593512,21.656157 7.062249,22.531156 5.874759,20.499924 7.874734,18.718671 8.343509,18.343741 8.187414,17.749978 C 8.058532,17.179685 7.99995,16.597638 7.99995,15.999981 c 0,-0.597657 0.05858,-1.179666 0.187464,-1.749997 l 0.156095,-0.593726 -0.468775,-0.374929 -1.999975,-1.781254 1.18749,-2.0312688 2.531263,0.8749988 0.562469,0.187464 0.437518,-0.406223 c 0.863282,-0.7929831 1.894526,-1.3945327 3.031257,-1.7499973 l 0.562507,-0.1874646 0.125103,-0.5937637 z m 1.18749,7.9999743 c 1.667981,0 3,1.332057 3,3 0,1.667982 -1.332019,3 -3,3 -1.667944,0 -3,-1.332018 -3,-3 0,-1.667943 1.332056,-3 3,-3 z"
     id="path1-4"
     style="fill:none;stroke:#000000;stroke-width:1.5;stroke-linecap:round;stroke-linejoin:round;stroke-dasharray:none;stroke-opacity:1;paint-order:normal" />
</svg>
